# xmcd
#
# Track frame offsets: 
#        150
#        15632
#        28385
#        42875
#        59160
#        74840
#        89702
#        103127
#        118670
#        135485
#        162045
#
# Disc length: 2267 seconds
#
# Revision: 0
# Processed by: cddbd v1.4PL0 Copyright (c) Steve Scherf et al.
# Submitted via: ExactAudioCopy v0.90b4
#
DISCID=a408d90b
DTITLE=Ronnie Milsap - Only One Love
DYEAR=1900
DGENRE=Country
TTITLE0=Let's Take The Long Way Around The World
TTITLE1=It Happens Everytime (I Think Of You)
TTITLE2=I Really Don't Want To Know
TTITLE3=It Was Almost Like A Song
TTITLE4=Only One Love In My Life
TTITLE5=Everywhere I Turn (There's Your Memory)
TTITLE6=He'll Have To Go
TTITLE7=I Wouldn't Have Missed It For The World
TTITLE8=In No Time At All
TTITLE9=Too Soon To Know
TTITLE10=Data Track
EXTD=
EXTT0=
EXTT1=
EXTT2=
EXTT3=
EXTT4=
EXTT5=
EXTT6=
EXTT7=
EXTT8=
EXTT9=
EXTT10=
PLAYORDER=
